<svg width="40" height="40" viewBox="0 0 40 40" fill="none" xmlns="http://www.w3.org/2000/svg">
<path d="M19.9501 16.7687C17.0625 16.7687 14.712 19.1193 14.712 22.0068C14.712 22.3414 14.7472 22.6847 14.8176 23.0369C14.8176 23.0721 14.8264 23.1161 14.8352 23.1513L17.3971 34.147C17.4939 34.5432 17.846 34.8249 18.251 34.8249H19.9765L21.5524 34.772C21.9485 34.7544 22.2831 34.4815 22.3711 34.103L25.0474 23.1337C25.0474 23.1337 25.065 23.0633 25.065 23.028C25.1354 22.6847 25.1706 22.3414 25.1706 22.0068C25.1706 19.1193 22.8201 16.7687 19.9325 16.7687H19.9501ZM23.3483 22.7375C23.3483 22.7375 23.3483 22.7727 23.3395 22.7904L20.8393 33.0377L19.9589 33.073H18.9641L16.5783 22.852C16.5783 22.8256 16.5783 22.7904 16.5607 22.7639C16.4991 22.491 16.4727 22.2445 16.4727 22.0068C16.4727 20.0876 18.0309 18.5294 19.9501 18.5294C21.8693 18.5294 23.4275 20.0876 23.4275 22.0068C23.4275 22.2445 23.4011 22.4822 23.3483 22.7375Z" fill="#59A627"/>
<path opacity="0.6" d="M19.95 15.5013C22.8376 15.5013 25.1881 13.1507 25.1881 10.2631C25.1881 7.37555 22.8376 5.02499 19.95 5.02499C17.0624 5.02499 14.7119 7.37555 14.7119 10.2631C14.7119 13.1507 17.0624 15.5013 19.95 15.5013ZM19.95 6.78571C21.8692 6.78571 23.4274 8.34395 23.4274 10.2631C23.4274 12.1823 21.8692 13.7406 19.95 13.7406C18.0308 13.7406 16.4726 12.1823 16.4726 10.2631C16.4726 8.34395 18.0308 6.78571 19.95 6.78571Z" fill="#59A627"/>
</svg>
