<svg width="24" height="24" viewBox="0 0 24 24" fill="none" xmlns="http://www.w3.org/2000/svg">
<path d="M17.0523 2.37961C16.5051 2.92689 16.2155 3.62242 16.2155 4.3916V13.6296C16.2155 15.9122 14.3388 17.76 12.0851 17.76C9.83824 17.76 7.96358 15.9928 7.96358 13.6296V4.3916C7.96358 3.62143 7.67004 2.9249 7.1158 2.37663C6.35857 1.62935 5.3287 1.36467 4.22021 1.66517V13.6187C4.22021 18.3571 8.06209 21.5532 12.0552 21.5532C16.0941 21.5532 19.9599 18.4267 19.9599 13.6187V1.66119C18.8325 1.36566 17.7996 1.63233 17.0523 2.37961Z" fill="white"/>
<path d="M14.697 13.6295C14.697 15.0704 13.5299 16.2375 12.089 16.2375C10.6492 16.2375 9.48102 15.0704 9.48102 13.6295C9.48102 12.1887 10.6492 11.0215 12.089 11.0215C13.5299 11.0215 14.697 12.1897 14.697 13.6295Z" fill="#C12A21"/>
</svg>
