<svg width="24" height="24" viewBox="0 0 24 24" fill="none" xmlns="http://www.w3.org/2000/svg">
<path d="M13.19 11.78L20.26 4.71C20.65 4.32 20.65 3.69 20.26 3.3C19.87 2.91 19.24 2.91 18.85 3.3L11.78 10.37L4.71 3.29C4.32 2.9 3.68 2.9 3.29 3.29C2.9 3.68 2.9 4.32 3.29 4.71L10.36 11.78L3.29 18.85C2.9 19.24 2.9 19.87 3.29 20.26C3.49 20.46 3.74 20.55 4 20.55C4.26 20.55 4.51 20.45 4.71 20.26L11.78 13.19L18.85 20.26C19.05 20.46 19.3 20.55 19.56 20.55C19.82 20.55 20.07 20.45 20.27 20.26C20.66 19.87 20.66 19.24 20.27 18.85L13.2 11.78H13.19Z" fill="#193A56"/>
</svg>
