<svg width="24" height="24" viewBox="0 0 24 24" fill="none" xmlns="http://www.w3.org/2000/svg">
<path d="M15.54 22H4C3.45 22 3 21.55 3 21V3C3 2.45 3.45 2 4 2H15.54C16.09 2 16.54 2.45 16.54 3V7.66C16.54 8.21 16.09 8.66 15.54 8.66C14.99 8.66 14.54 8.21 14.54 7.66V4H5V20H14.54V16.57C14.54 16.02 14.99 15.57 15.54 15.57C16.09 15.57 16.54 16.02 16.54 16.57V21C16.54 21.55 16.09 22 15.54 22Z" fill="#193A56"/>
<path d="M20.71 11.9C20.74 12.19 20.66 12.49 20.44 12.71L18.2 14.95C18 15.15 17.75 15.24 17.49 15.24C17.23 15.24 16.98 15.14 16.78 14.95C16.39 14.56 16.39 13.93 16.78 13.54L17.32 13H10.15C9.60002 13 9.15002 12.55 9.15002 12C9.15002 11.45 9.60002 11 10.15 11H17.52L16.78 10.26C16.39 9.87 16.39 9.24 16.78 8.85C17.17 8.46 17.8 8.46 18.19 8.85L20.43 11.09C20.65 11.31 20.73 11.61 20.7 11.9H20.71Z" fill="#193A56"/>
</svg>
