<svg width="40" height="40" viewBox="0 0 40 40" fill="none" xmlns="http://www.w3.org/2000/svg">
<path d="M17.63 13.09C17.63 10.28 15.35 8 12.54 8C9.73 8 7.45 10.28 7.45 13.09C7.45 14.64 8.16 16.01 9.25 16.94C6.74 18.17 5 20.74 5 23.72V31.9C5 32.45 5.45 32.9 6 32.9H13.91C13.36 32.9 12.91 32.45 12.91 31.9V30.9H7V23.72C7 20.66 9.49 18.18 12.54 18.18C13.5 18.18 14.42 18.44 15.24 18.9C15.43 18.24 15.76 17.65 16.22 17.16C16.09 17.09 15.96 17.01 15.82 16.94C16.91 16.01 17.62 14.63 17.62 13.09H17.63ZM12.54 16.18C10.84 16.18 9.45 14.79 9.45 13.09C9.45 11.39 10.84 10 12.54 10C14.24 10 15.63 11.39 15.63 13.09C15.63 14.79 14.24 16.18 12.54 16.18ZM30.76 18.58C31.85 17.65 32.56 16.27 32.56 14.73C32.56 11.92 30.28 9.64 27.47 9.64C24.66 9.64 22.38 11.92 22.38 14.73C22.38 16.28 23.09 17.65 24.19 18.59C23.91 18.72 23.64 18.88 23.38 19.04C23.46 19.37 23.52 19.71 23.52 20.06C23.52 20.86 23.28 21.61 22.89 22.25C23.92 20.74 25.62 19.81 27.47 19.81C30.53 19.81 33.01 22.3 33.01 25.35V30.89H25.67V31.89C25.67 32.44 25.22 32.89 24.67 32.89H34.01C34.56 32.89 35.01 32.44 35.01 31.89V25.35C35.01 22.37 33.27 19.79 30.75 18.57L30.76 18.58ZM27.47 17.82C25.77 17.82 24.38 16.43 24.38 14.73C24.38 13.03 25.77 11.64 27.47 11.64C29.17 11.64 30.56 13.03 30.56 14.73C30.56 16.43 29.17 17.82 27.47 17.82ZM22.33 23C22.47 22.85 22.6 22.7 22.72 22.53C22.69 22.58 22.65 22.63 22.62 22.68C22.55 22.81 22.45 22.92 22.33 23ZM22.26 23.04C22.26 23.04 22.31 23.02 22.33 23C22.32 23.02 22.3 23.03 22.29 23.05H22.26V23.04Z" fill="#193A56"/>
<path opacity="0.6" d="M22.29 23.04H22.26C22.26 23.04 22.31 23.01 22.33 22.99C22.47 22.84 22.6 22.69 22.72 22.52C22.78 22.43 22.84 22.34 22.9 22.25C23.29 21.61 23.53 20.86 23.53 20.06C23.53 19.71 23.47 19.37 23.39 19.04C22.93 17.2 21.28 15.83 19.3 15.83C18.09 15.83 17.01 16.35 16.24 17.16C15.78 17.64 15.45 18.24 15.26 18.9C15.15 19.27 15.08 19.66 15.08 20.06C15.08 21.22 15.55 22.27 16.31 23.04C14.3 24.12 12.92 26.24 12.92 28.67V31.9C12.92 32.45 13.37 32.9 13.92 32.9H24.68C25.23 32.9 25.68 32.45 25.68 31.9V28.67C25.68 26.23 24.31 24.11 22.29 23.04ZM19.29 17.83C20.52 17.83 21.52 18.83 21.52 20.06C21.52 20.47 21.4 20.85 21.21 21.18C21.17 21.25 21.12 21.31 21.08 21.38C20.67 21.93 20.03 22.29 19.29 22.29C18.06 22.29 17.06 21.29 17.06 20.06C17.06 18.83 18.06 17.83 19.29 17.83ZM23.67 30.9H14.91V28.67C14.91 26.25 16.88 24.29 19.29 24.29C21.7 24.29 23.67 26.26 23.67 28.67V30.9Z" fill="#193A56"/>
</svg>
