<svg width="20" height="20" viewBox="0 0 20 20" fill="none" xmlns="http://www.w3.org/2000/svg">
<path d="M1.32212 8.67666C2.71825 5.10256 6.16289 2.75 10 2.75C13.8371 2.75 17.2817 5.10256 18.6779 8.67666L19.1948 10L18.6779 11.3233C17.2817 14.8974 13.8371 17.25 10 17.25C6.16289 17.25 2.71825 14.8974 1.32212 11.3233L0.80519 10L1.32212 8.67666Z" stroke="#193A56" stroke-width="1.5"/>
<path fill-rule="evenodd" clip-rule="evenodd" d="M2.73765 1.74726C2.46428 1.47389 2.02107 1.47389 1.7477 1.74726C1.47433 2.02063 1.47433 2.46384 1.7477 2.73721L7.15228 8.14179C6.80304 8.6759 6.6 9.31426 6.6 10C6.6 11.8778 8.12223 13.4 10 13.4C10.6858 13.4 11.3242 13.197 11.8583 12.8478L17.7477 18.7372C18.0211 19.0106 18.4643 19.0106 18.7376 18.7372C19.011 18.4638 19.011 18.0206 18.7376 17.7473L12.8481 11.8577C13.1971 11.3237 13.4 10.6856 13.4 10C13.4 8.12228 11.8778 6.60005 10 6.60005C9.31447 6.60005 8.67632 6.80294 8.14233 7.15194L2.73765 1.74726ZM8.18005 9.16956C8.06443 9.42251 8 9.70375 8 10C8 11.1046 8.89543 12 10 12C10.2963 12 10.5775 11.9356 10.8305 11.82L8.18005 9.16956ZM11.8203 10.8299L9.17018 8.17979C9.42295 8.06437 9.70397 8.00005 10 8.00005C11.1046 8.00005 12 8.89548 12 10C12 10.2961 11.9357 10.5771 11.8203 10.8299Z" fill="#193A56"/>
</svg>
