<svg width="40" height="40" viewBox="0 0 40 40" fill="none" xmlns="http://www.w3.org/2000/svg">
<path d="M32.5 23.39C32.45 23.29 32.39 23.2 32.31 23.12L30.24 21.05L29.13 19.94L27.72 18.53L21.36 12.17L20.21 11.02L19.94 10.75L16.76 7.57001C16.69 7.50001 16.6 7.44001 16.51 7.39001C13.91 5.36001 10.26 5.57001 7.92 7.92001C5.58 10.25 5.36 13.9 7.37 16.48C7.42 16.58 7.48 16.67 7.56 16.75L9.73 18.92L10.74 19.93L11.44 20.64L19.22 28.42L19.93 29.13L23.11 32.31C23.18 32.38 23.27 32.44 23.36 32.49C24.54 33.41 25.95 33.87 27.35 33.87C29.01 33.87 30.67 33.23 31.94 31.95C34.28 29.61 34.49 25.97 32.49 23.38L32.5 23.39ZM27 20.64L28.11 21.75L21.75 28.11L12.59 18.95L11.86 18.22L18.22 11.86L19.23 12.87L27.01 20.65L27 20.64ZM9.13 15.5C9.13 15.5 9.08 15.43 9.05 15.39C7.55 13.59 7.67 10.99 9.33 9.33001C10.99 7.67001 13.59 7.55001 15.39 9.05001C15.42 9.08001 15.46 9.11001 15.5 9.13001L16.81 10.44L10.45 16.8L9.14 15.49L9.13 15.5ZM30.54 30.55C28.88 32.21 26.28 32.33 24.48 30.83C24.45 30.8 24.41 30.77 24.37 30.75L23.16 29.54L29.52 23.18L30.73 24.38C30.73 24.38 30.78 24.46 30.81 24.49C32.31 26.29 32.19 28.89 30.54 30.55Z" fill="#193A56"/>
<path opacity="0.6" fill-rule="evenodd" clip-rule="evenodd" d="M32.49 16.5C32.44 16.59 32.38 16.68 32.31 16.75L29.13 19.93L27.72 18.52L30.74 15.5C30.74 15.5 30.79 15.42 30.82 15.39C32.32 13.59 32.2 10.99 30.55 9.33C28.89 7.67 26.29 7.55 24.49 9.05C24.45 9.08 24.42 9.11 24.38 9.13L21.36 12.15L20.21 11L19.94 10.73L23.12 7.55C23.2 7.47 23.29 7.41 23.39 7.36C25.98 5.35 29.62 5.57 31.96 7.91C34.3 10.25 34.52 13.9 32.49 16.49V16.5ZM19.23 28.42L19.94 29.13L16.76 32.31C16.68 32.39 16.59 32.45 16.49 32.5C15.31 33.42 13.91 33.87 12.51 33.87C10.85 33.87 9.19 33.23 7.92 31.95C5.58 29.61 5.37 25.96 7.38 23.37C7.42 23.28 7.49 23.19 7.56 23.11L10.74 19.93L11.44 20.64L19.22 28.42H19.23ZM18.52 27.72L12.16 21.36L9.14 24.39C9.14 24.39 9.09 24.46 9.06 24.5C7.56 26.3 7.68 28.9 9.34 30.56C11 32.22 13.6 32.34 15.4 30.84C15.44 30.81 15.47 30.78 15.51 30.76L18.53 27.74L18.52 27.72ZM20.69 23.53C20.3 23.92 20.3 24.56 20.69 24.94C21.08 25.32 21.72 25.33 22.1 24.94C22.48 24.55 22.49 23.91 22.1 23.53C21.71 23.14 21.07 23.14 20.69 23.53ZM19.28 22.12C19.67 21.73 19.67 21.09 19.28 20.71C18.89 20.32 18.25 20.32 17.87 20.71C17.48 21.1 17.48 21.74 17.87 22.12C18.26 22.5 18.9 22.51 19.28 22.12ZM16.45 19.29C16.84 18.9 16.84 18.26 16.45 17.88C16.06 17.49 15.42 17.49 15.04 17.88C14.65 18.27 14.65 18.91 15.04 19.29C15.43 19.67 16.07 19.68 16.45 19.29ZM23.52 20.7C23.13 21.09 23.13 21.73 23.52 22.11C23.91 22.5 24.55 22.5 24.93 22.11C25.31 21.72 25.32 21.08 24.93 20.7C24.54 20.31 23.9 20.31 23.52 20.7ZM20.69 17.87C20.3 18.26 20.3 18.9 20.69 19.28C21.08 19.66 21.72 19.67 22.1 19.28C22.48 18.89 22.49 18.25 22.1 17.87C21.71 17.48 21.07 17.48 20.69 17.87ZM19.28 16.46C19.67 16.07 19.67 15.43 19.28 15.05C18.89 14.66 18.25 14.66 17.87 15.05C17.48 15.44 17.48 16.08 17.87 16.46C18.26 16.84 18.9 16.85 19.28 16.46Z" fill="#193A56"/>
</svg>
