<svg width="40" height="40" viewBox="0 0 40 40" fill="none" xmlns="http://www.w3.org/2000/svg">
<path opacity="0.6" d="M11.12 25.9C10.8 25.82 10.47 25.76 10.12 25.76C9.77 25.76 9.44 25.82 9.12 25.9C7.33 26.35 6 27.96 6 29.88C6 32.15 7.85 34 10.12 34C12.39 34 14.24 32.15 14.24 29.88C14.24 27.95 12.91 26.35 11.12 25.9ZM10.12 32C8.95 32 8 31.05 8 29.88C8 28.71 8.95 27.76 10.12 27.76C11.29 27.76 12.24 28.71 12.24 29.88C12.24 31.05 11.29 32 10.12 32Z" fill="#193A56"/>
<path d="M32.82 7.42C32.19 6.97 31.46 6.87 30.85 6.88C30.79 6.39 30.38 6 29.87 6C29.32 6 28.87 6.45 28.87 7V9.08C28.87 9.63 29.32 10.08 29.87 10.08C30.42 10.08 30.87 9.63 30.87 9.08V8.88C31.16 8.87 31.46 8.9 31.65 9.04C31.93 9.25 31.99 9.74 31.99 10.12C31.99 13.39 30.12 21.6 25.71 21.6C21.3 21.6 19.43 13.39 19.43 10.12C19.43 9.74 19.49 9.25 19.77 9.04C19.96 8.9 20.26 8.87 20.55 8.88V9.08C20.55 9.63 21 10.08 21.55 10.08C22.1 10.08 22.55 9.63 22.55 9.08V7C22.55 6.45 22.1 6 21.55 6C21.04 6 20.64 6.39 20.57 6.88C19.96 6.86 19.23 6.97 18.6 7.42C18.06 7.81 17.42 8.59 17.42 10.12C17.42 12.67 18.54 18.81 21.64 21.85C21.65 21.89 21.64 21.93 21.67 21.97L24.69 28.78C24.64 30.33 23.37 31.59 21.8 31.59C20.23 31.59 18.9 30.29 18.9 28.69V23.81C18.9 21.11 16.7 18.91 14 18.91C11.3 18.91 9.1 21.11 9.1 23.81V25.9C9.42 25.82 9.75 25.76 10.1 25.76C10.45 25.76 10.78 25.82 11.1 25.9V23.81C11.1 22.21 12.4 20.91 14 20.91C15.6 20.91 16.9 22.21 16.9 23.81V28.69C16.9 31.39 19.1 33.59 21.8 33.59C24.5 33.59 26.6 31.47 26.68 28.84L29.73 21.98C29.73 21.98 29.74 21.9 29.76 21.86C32.86 18.83 33.98 12.69 33.98 10.13C33.98 8.6 33.34 7.81 32.8 7.43L32.82 7.42ZM25.72 26.12L24.54 23.47C24.91 23.55 25.31 23.6 25.72 23.6C26.13 23.6 26.52 23.55 26.9 23.47L25.72 26.12ZM11.14 29.88C11.14 30.43 10.69 30.88 10.14 30.88C9.59 30.88 9.14 30.43 9.14 29.88C9.14 29.33 9.58 28.88 10.14 28.88C10.69 28.88 11.14 29.33 11.14 29.88Z" fill="#193A56"/>
</svg>
