<svg width="40" height="40" viewBox="0 0 40 40" fill="none" xmlns="http://www.w3.org/2000/svg">
<path d="M33.7048 32.378L24.7825 23.4558C26.3895 21.5405 27.2677 19.1488 27.2677 16.6263C27.2677 13.7861 26.1653 11.1141 24.1472 9.0961C22.1479 7.09676 19.4759 5.98499 16.6264 5.98499C13.7769 5.98499 11.1142 7.09676 9.10553 9.10544C7.09686 11.1141 5.98508 13.7861 5.98508 16.6263C5.98508 19.4665 7.09686 22.1385 9.10553 24.1565C11.1142 26.1652 13.7862 27.2769 16.6357 27.2769C19.1676 27.2769 21.5593 26.3987 23.4652 24.7918L32.3875 33.714C32.5743 33.9009 32.8079 33.985 33.0508 33.985C33.2937 33.985 33.5273 33.8916 33.7141 33.714C34.0785 33.3497 34.0785 32.7611 33.7141 32.3967L33.7048 32.378ZM10.4229 22.8298C8.7692 21.1762 7.85362 18.9713 7.85362 16.6263C7.85362 14.2813 8.7692 12.0764 10.4229 10.4228C12.0765 8.7691 14.2814 7.85352 16.6264 7.85352C18.9714 7.85352 21.1763 8.7691 22.8299 10.4228C24.4836 12.0764 25.3992 14.2813 25.3992 16.6263C25.3992 18.9713 24.4836 21.1762 22.8299 22.8298C21.1763 24.4835 18.9714 25.3991 16.6264 25.3991C14.2814 25.3991 12.0765 24.4835 10.4229 22.8298Z" fill="#193A56"/>
<path opacity="0.6" d="M22.942 16.6263C22.942 17.1402 22.5216 17.5606 22.0078 17.5606C21.4939 17.5606 21.0735 17.1402 21.0735 16.6263C21.0735 14.1785 19.0835 12.1792 16.6264 12.1792C16.1125 12.1792 15.6921 11.7588 15.6921 11.2449C15.6921 10.7311 16.1125 10.3107 16.6264 10.3107C20.1112 10.3107 22.942 13.1415 22.942 16.6263Z" fill="#193A56"/>
</svg>
