<svg width="24" height="24" viewBox="0 0 24 24" fill="none" xmlns="http://www.w3.org/2000/svg">
<path opacity="0.6" d="M12.07 11.18C10.03 11.18 8.37 9.52 8.37 7.48C8.37 5.44 10.03 3.78 12.07 3.78C14.11 3.78 15.77 5.44 15.77 7.48C15.77 9.52 14.11 11.18 12.07 11.18ZM12.07 5.79C11.13 5.79 10.37 6.55 10.37 7.49C10.37 8.43 11.13 9.19 12.07 9.19C13.01 9.19 13.77 8.43 13.77 7.49C13.77 6.55 13.01 5.79 12.07 5.79Z" fill="#193A56"/>
<path d="M11.97 1C5.92 1 1 5.92 1 11.97C1 18.02 5.92 22.94 11.97 22.94C13.82 22.94 15.55 22.48 17.08 21.67C17.34 21.63 17.56 21.5 17.71 21.3C20.84 19.37 22.94 15.91 22.94 11.97C22.95 5.92 18.02 1 11.97 1ZM15.94 20.01C14.74 20.6 13.4 20.94 11.98 20.94C10.63 20.94 9.36 20.63 8.21 20.1V17.17C8.21 14.1 11.12 13.79 12.01 13.76C12.03 13.76 12.05 13.76 12.07 13.76C12.07 13.76 12.08 13.76 12.09 13.76C12.11 13.76 12.13 13.76 12.15 13.76C13.04 13.78 15.95 14.1 15.95 17.17V20L15.94 20.01ZM17.94 18.66V17.18C17.94 14.04 15.63 11.87 12.2 11.77C12.2 11.77 12.12 11.77 12.08 11.77C12.01 11.77 11.89 11.77 11.83 11.77C8.46 11.91 6.21 14.07 6.21 17.17V18.82C4.26 17.17 3.01 14.71 3.01 11.96C3 7.03 7.03 3 11.97 3C16.91 3 20.94 7.03 20.94 11.97C20.94 14.63 19.77 17.01 17.93 18.66H17.94Z" fill="#193A56"/>
</svg>
