<svg width="40" height="40" viewBox="0 0 40 40" fill="none" xmlns="http://www.w3.org/2000/svg">
<path fill-rule="evenodd" clip-rule="evenodd" d="M34.54 31.4L30.73 15.39C30.6 15.53 30.48 15.66 30.34 15.8C29.94 16.2 29.51 16.61 29.07 17.03L32.47 31.31L32.12 31.66L24.53 21.06C24.02 21.49 23.51 21.92 22.99 22.35L31.18 33.78C31.5 34.23 32.12 34.33 32.57 34.01C32.62 33.98 32.66 33.94 32.7 33.9L34.27 32.32C34.52 32.08 34.62 31.72 34.54 31.38V31.4ZM8.67 7.53L8.32 7.88L18.92 15.47C18.49 15.98 18.06 16.49 17.63 17.01L6.21 8.82C5.76 8.5 5.66 7.87 5.98 7.42C6.01 7.38 6.05 7.34 6.08 7.3L7.66 5.72C7.91 5.48 8.26 5.38 8.6 5.46L24.61 9.27C24.47 9.4 24.34 9.52 24.2 9.66C23.8 10.06 23.38 10.49 22.96 10.93L8.68 7.53H8.67Z" fill="#C4151C"/>
<path fill-rule="evenodd" clip-rule="evenodd" d="M28.92 14.38C23.61 19.69 14.22 26.79 11.61 28.73L11.43 28.55L11.25 28.37C13.19 25.76 20.3 16.37 25.6 11.06C29.91 6.76 32.24 6.75 32.84 7.13C33.22 7.73 33.22 10.06 28.91 14.37L28.92 14.38ZM15.02 32.14L13.04 30.16C13.31 29.96 13.64 29.71 14.02 29.42L15.16 31.7L15.02 32.13V32.14ZM9.83 26.95L7.86 24.97L8.29 24.82L10.57 25.96L9.83 26.94V26.95ZM34.27 5.72C33.96 5.41 31.11 2.98 24.6 9.27C24.46 9.41 24.33 9.52 24.19 9.66C23.79 10.06 23.37 10.49 22.96 10.93C21.57 12.41 20.23 13.92 18.92 15.47C18.49 15.98 18.06 16.49 17.63 17.01C15.64 19.42 13.69 21.87 11.79 24.36L8.8 22.87C8.56 22.75 8.29 22.73 8.04 22.82L5.68 23.61C5.35 23.72 5.1 23.99 5.02 24.33C4.94 24.67 5.04 25.02 5.29 25.27L9.23 29.21L10.02 30L10.81 30.79L14.75 34.73C15.14 35.12 15.78 35.12 16.17 34.73C16.28 34.62 16.36 34.49 16.41 34.34L17.2 31.98C17.28 31.73 17.26 31.45 17.15 31.22L15.66 28.23C17.68 26.68 20.34 24.6 23.01 22.39C23.52 21.97 24.04 21.54 24.55 21.1C26.1 19.8 27.61 18.45 29.09 17.06C29.53 16.64 29.96 16.23 30.36 15.83C30.5 15.69 30.62 15.56 30.75 15.42C37.04 8.91 34.6 6.06 34.3 5.75L34.27 5.72Z" fill="#193A56"/>
</svg>
