<svg width="40" height="40" viewBox="0 0 40 40" fill="none" xmlns="http://www.w3.org/2000/svg">
<path d="M29.28 28.97C30.65 28.97 31.77 27.85 31.77 26.48C31.77 25.11 30.65 23.99 29.28 23.99C27.91 23.99 26.79 25.11 26.79 26.48C26.79 27.85 27.91 28.97 29.28 28.97ZM29.28 26C29.55 26 29.77 26.22 29.77 26.49C29.77 26.76 29.55 26.98 29.28 26.98C29.01 26.98 28.79 26.76 28.79 26.49C28.79 26.22 29.01 26 29.28 26ZM32.53 32.46V34.38C32.53 35.37 31.72 36.17 30.74 36.17H27.83C26.84 36.17 26.04 35.36 26.04 34.38V32.46H28.04V34.17H30.54V32.46H32.54H32.53ZM20.18 32.46H22.18V34.38C22.18 35.37 21.37 36.17 20.39 36.17H17.48C16.49 36.17 15.69 35.36 15.69 34.38V32.46H17.69V34.17H20.19V32.46H20.18ZM14.02 17.83C14.02 18.38 13.57 18.83 13.02 18.83H10.63V23.99H11.13C11.68 23.99 12.13 24.44 12.13 24.99C12.13 25.54 11.68 25.99 11.13 25.99H10.35C9.41 25.99 8.64 25.22 8.64 24.28V18.54C8.64 17.6 9.41 16.83 10.35 16.83H13.03C13.58 16.83 14.03 17.28 14.03 17.83H14.02ZM18.93 28.97C20.3 28.97 21.42 27.85 21.42 26.48C21.42 25.11 20.3 23.99 18.93 23.99C17.56 23.99 16.44 25.11 16.44 26.48C16.44 27.85 17.56 28.97 18.93 28.97ZM18.93 26C19.2 26 19.42 26.22 19.42 26.49C19.42 26.76 19.2 26.98 18.93 26.98C18.66 26.98 18.44 26.76 18.44 26.49C18.44 26.22 18.66 26 18.93 26Z" fill="#C4151C"/>
<path d="M33.43 21.63L33.57 21.53H34.21C34.76 21.53 35.21 21.08 35.21 20.53C35.21 19.98 34.76 19.53 34.21 19.53H33.25C33.04 19.53 32.84 19.59 32.67 19.72L31.84 20.31C31.47 19.22 31.04 17.86 30.95 17.27C30.66 15.35 29.32 14.06 27.61 14.06H20.48C20.48 14.06 20.4 14.08 20.36 14.08C18.79 14.21 17.53 15.47 17.27 17.26C17.18 17.85 16.75 19.21 16.38 20.3L15.54 19.71C15.37 19.59 15.17 19.52 14.96 19.52H14C13.45 19.52 13 19.97 13 20.52C13 21.07 13.45 21.52 14 21.52H14.64L14.78 21.62C13.55 22.42 12.74 23.8 12.74 25.38V31.46C12.74 32.01 13.19 32.46 13.74 32.46H34.48C35.03 32.46 35.48 32.01 35.48 31.46V25.38C35.48 23.81 34.66 22.42 33.43 21.62V21.63ZM19.24 17.56C19.34 16.87 19.76 16.06 20.6 16.06H27.61C28.45 16.06 28.87 16.87 28.98 17.56C29.09 18.32 29.56 19.79 29.93 20.89H24.14C24.14 20.89 24.12 20.89 24.11 20.89C24.11 20.89 24.09 20.89 24.08 20.89H18.29C18.66 19.79 19.13 18.31 19.24 17.56ZM33.48 30.46H14.74V25.38C14.74 24.01 15.86 22.89 17.23 22.89H24.08C24.08 22.89 24.1 22.89 24.11 22.89C24.11 22.89 24.13 22.89 24.14 22.89H30.99C32.36 22.89 33.48 24.01 33.48 25.38V30.46ZM13.22 12.61C14.98 12.65 16.12 12.71 16.6 12.76C16.65 13.26 17.08 13.65 17.59 13.65C18.14 13.65 18.59 13.2 18.59 12.65C18.59 11.95 18.21 11.3 17.61 10.97C17.45 10.88 17.28 10.79 16.04 10.71V7.89H18.37C18.92 7.89 19.37 7.44 19.37 6.89C19.37 6.34 18.92 5.89 18.37 5.89H15.65C15.23 4.94 14.42 4.03 12.99 4.03L10.39 4C8.97 4 8.15 4.9 7.72 5.86H5C4.45 5.86 4 6.31 4 6.86C4 7.41 4.45 7.86 5 7.86H7.33V10.68C6.09 10.76 5.92 10.85 5.76 10.94C5.15 11.28 4.78 11.92 4.78 12.62V18.68C4.78 18.68 4.78 18.75 4.78 18.78C4.92 20.19 5.92 22.75 8.64 23.19V21.14C7.13 20.67 6.82 18.97 6.78 18.62L6.74 12.74C7.2 12.69 8.35 12.62 10.13 12.58L13.23 12.61H13.22ZM9.33 10.6V7.46C9.33 7.4 9.48 6 10.39 6L12.99 6.03C13.9 6.03 14.05 7.4 14.06 7.4V10.63C13.81 10.63 13.55 10.62 13.26 10.61L10.12 10.58C9.84 10.58 9.58 10.59 9.34 10.6H9.33Z" fill="#193A56"/>
</svg>
