<svg width="40" height="40" viewBox="0 0 40 40" fill="none" xmlns="http://www.w3.org/2000/svg">
<path d="M30.5 21.77C28.02 21.77 26 23.79 26 26.27C26 28.75 28.02 30.77 30.5 30.77C32.98 30.77 35 28.75 35 26.27C35 23.79 32.98 21.77 30.5 21.77ZM30.5 28.77C29.12 28.77 28 27.65 28 26.27C28 24.89 29.12 23.77 30.5 23.77C31.88 23.77 33 24.89 33 26.27C33 27.65 31.88 28.77 30.5 28.77ZM11.72 27.41H13.85C13.35 29.36 11.6 30.77 9.5 30.77C7.02 30.77 5 28.75 5 26.27C5 23.79 7.02 21.77 9.5 21.77C9.99 21.77 10.48 21.86 10.94 22.02L9.33 23.79C8.03 23.88 7 24.95 7 26.27C7 27.59 8.12 28.77 9.5 28.77C10.47 28.77 11.31 28.22 11.72 27.41Z" fill="#C4151C"/>
<path d="M34.94 16.67L34.91 16.45C34.91 16.45 34.9 16.38 34.89 16.34L34.52 14.7C34.52 14.7 34.5 14.62 34.49 14.59C33.3 11.25 30.11 9 26.56 9C25.97 9 25.43 9.29 25.09 9.77H22C21.45 9.77 21 10.22 21 10.77C21 11.32 21.45 11.77 22 11.77H25L25.26 12.28H24.93C24.36 12.28 23.81 12.55 23.5 12.98L22.73 13.93H19.19C17.9 13.93 16.66 14.38 15.63 15.16L7.18 13.49C6.39 13.33 5.6 13.7 5.22 14.42C4.84 15.13 4.97 15.99 5.53 16.55L7.68 18.79C7.89 19 8.16 19.16 8.46 19.25L12.44 20.38L10.95 22.03L9.34 23.8L8.87 24.31C8.35 24.83 8.19 25.61 8.48 26.29C8.76 26.97 9.42 27.42 10.16 27.42H23.28C23.77 27.42 24.24 27.22 24.59 26.88C24.92 26.54 25.11 26.1 25.1 25.63C25.09 23.94 26 22.35 27.47 21.5C27.86 21.27 28.28 21.1 28.73 21C29.11 20.91 29.48 20.86 29.84 20.86H33.18C34.18 20.86 35 20.04 35 19.04V17.4C35 17.16 34.97 16.92 34.94 16.69V16.67ZM15.58 18.29C15.58 18.29 15.61 18.23 15.63 18.2C15.72 18.01 15.82 17.83 15.94 17.66C15.98 17.61 16.01 17.56 16.05 17.51C16.2 17.32 16.36 17.13 16.54 16.96C17.27 16.3 18.21 15.93 19.18 15.93H21.09L18.71 18.85H15.41C15.46 18.66 15.51 18.47 15.59 18.29H15.58ZM9.06 17.33L7.35 15.55L14.06 16.88C14.06 16.88 14.06 16.89 14.06 16.9C13.93 17.13 13.81 17.37 13.71 17.62C13.68 17.68 13.66 17.74 13.64 17.81C13.56 18.03 13.49 18.26 13.43 18.5C13.43 18.53 13.41 18.55 13.41 18.57L9.06 17.34V17.33ZM33 18.84H29.84C29.32 18.84 28.79 18.91 28.26 19.03C27.63 19.18 27.03 19.42 26.47 19.75C24.44 20.93 23.17 23.08 23.1 25.4H10.57L14.71 20.84H19.19C19.49 20.84 19.77 20.7 19.96 20.47L23.98 15.55L25.02 14.28H26.89C27.24 14.28 27.56 14.1 27.74 13.81C27.92 13.52 27.94 13.15 27.78 12.84L26.93 11.15C26.93 11.15 26.94 11.07 26.96 11.03C29.33 11.17 31.42 12.63 32.4 14.78H30.01C29.46 14.78 29.01 15.23 29.01 15.78C29.01 16.33 29.46 16.78 30.01 16.78H32.95L32.97 16.95C32.99 17.1 33.01 17.24 33.01 17.39V18.85L33 18.84Z" fill="#193A56"/>
</svg>
