<svg width="40" height="40" viewBox="0 0 40 40" fill="none" xmlns="http://www.w3.org/2000/svg">
<g id="Set=Canali Digitali, Colors=Negative, Icona=Tutti i preventivatori">
<path id="Red" opacity="0.6" d="M29.98 28.35C30.37 28.74 30.37 29.37 29.98 29.76C29.11 30.63 27.96 31.07 26.82 31.07C25.68 31.07 24.53 30.64 23.66 29.77C23.36 29.47 23.12 29.12 22.93 28.76H21.79C21.24 28.76 20.79 28.31 20.79 27.76C20.79 27.21 21.24 26.76 21.79 26.76H22.37C22.37 26.66 22.37 26.55 22.37 26.45H21.79C21.24 26.45 20.79 26 20.79 25.45C20.79 24.9 21.24 24.45 21.79 24.45H22.93C23.13 24.09 23.36 23.75 23.66 23.45C25.4 21.71 28.24 21.71 29.98 23.45C30.37 23.84 30.37 24.47 29.98 24.86C29.59 25.25 28.96 25.25 28.57 24.86C27.78 24.07 26.58 23.94 25.65 24.45H26.31C26.86 24.45 27.31 24.9 27.31 25.45C27.31 26 26.86 26.45 26.31 26.45H24.37C24.37 26.55 24.37 26.66 24.37 26.76H26.31C26.86 26.76 27.31 27.21 27.31 27.76C27.31 28.31 26.86 28.76 26.31 28.76H25.65C26.59 29.27 27.78 29.14 28.57 28.35C28.96 27.96 29.59 27.96 29.98 28.35Z" fill="white"/>
<path id="Blue" d="M26.45 17.98C21.76 17.98 17.95 21.79 17.95 26.48C17.95 31.17 21.76 34.98 26.45 34.98C31.14 34.98 34.95 31.17 34.95 26.48C34.95 21.79 31.14 17.98 26.45 17.98ZM26.45 32.98C22.87 32.98 19.95 30.06 19.95 26.48C19.95 22.9 22.87 19.98 26.45 19.98C30.03 19.98 32.95 22.9 32.95 26.48C32.95 30.06 30.03 32.98 26.45 32.98ZM18.45 32.99H9V14.77H28.75V15.81C28.75 16.36 29.2 16.81 29.75 16.81C30.3 16.81 30.75 16.36 30.75 15.81V6C30.75 5.73 30.65 5.48 30.46 5.29C30.27 5.1 30.01 5 29.75 5H8C7.73 5 7.48 5.1 7.29 5.29C7.1 5.48 7 5.73 7 6V33.99C7 34.26 7.1 34.52 7.29 34.7C7.48 34.88 7.74 34.99 8 34.99H18.45C19 34.99 19.45 34.54 19.45 33.99C19.45 33.44 19 32.99 18.45 32.99ZM9 7H28.75V12.77H9V7ZM13.22 19.76C12.41 19.76 11.75 19.1 11.75 18.28C11.75 17.46 12.41 16.8 13.23 16.8C13.62 16.8 13.99 16.95 14.27 17.23C14.55 17.51 14.7 17.88 14.7 18.28C14.7 19.09 14.04 19.76 13.22 19.76ZM18.87 16.8C19.69 16.8 20.35 17.46 20.35 18.27C20.35 19.08 19.69 19.75 18.87 19.75C18.06 19.75 17.39 19.1 17.39 18.28C17.39 17.46 18.05 16.8 18.87 16.8ZM14.71 29.47C14.71 30.29 14.05 30.95 13.23 30.95C12.41 30.95 11.75 30.29 11.75 29.47C11.75 28.65 12.41 27.99 13.23 27.99C14.05 27.99 14.71 28.65 14.71 29.47ZM14.71 23.9C14.71 24.3 14.56 24.67 14.28 24.95C14 25.23 13.63 25.38 13.23 25.38C12.42 25.39 11.75 24.73 11.75 23.91C11.75 23.09 12.41 22.43 13.23 22.43C14.05 22.43 14.71 23.09 14.71 23.9Z" fill="white"/>
</g>
</svg>
