<svg width="40" height="40" viewBox="0 0 40 40" fill="none" xmlns="http://www.w3.org/2000/svg">
<path opacity="0.6" d="M19.87 8.52002C16.9 8.52002 14.49 10.94 14.49 13.9C14.49 16.86 16.91 19.28 19.87 19.28C22.83 19.28 25.25 16.86 25.25 13.9C25.25 10.94 22.83 8.52002 19.87 8.52002ZM19.87 17.29C18 17.29 16.49 15.77 16.49 13.91C16.49 12.05 18.01 10.53 19.87 10.53C21.73 10.53 23.25 12.05 23.25 13.91C23.25 15.77 21.73 17.29 19.87 17.29Z" fill="white"/>
<path d="M34.74 19.87C34.74 11.67 28.07 5 19.87 5C11.67 5 5 11.67 5 19.87C5 28.07 11.67 34.74 19.87 34.74C22.56 34.74 25.07 34.01 27.25 32.76C27.27 32.76 27.28 32.74 27.3 32.73C31.74 30.16 34.75 25.36 34.75 19.87H34.74ZM7 19.87C7 12.77 12.77 7 19.87 7C26.97 7 32.74 12.77 32.74 19.87C32.74 23.95 30.83 27.58 27.86 29.94V26.88C27.86 22.68 24.91 19.87 20.32 19.69C20.27 19.69 20.21 19.68 20.15 19.68H19.99C19.99 19.68 19.89 19.68 19.87 19.68C19.81 19.68 19.76 19.68 19.7 19.69C15.12 19.87 12.16 22.68 12.16 26.88V30.16C9.02 27.81 6.98 24.08 6.98 19.87H7ZM14.18 31.39V26.88C14.18 23.16 17.14 21.76 19.91 21.69C19.94 21.69 19.96 21.69 19.99 21.69C20 21.69 20.01 21.69 20.01 21.69C20.01 21.69 20.02 21.69 20.05 21.69C20.08 21.69 20.1 21.69 20.13 21.69C22.9 21.76 25.86 23.17 25.86 26.88V31.25C24.07 32.2 22.03 32.74 19.87 32.74C17.83 32.74 15.9 32.25 14.18 31.4V31.39Z" fill="white"/>
</svg>
