<svg width="40" height="40" viewBox="0 0 40 40" fill="none" xmlns="http://www.w3.org/2000/svg">
<path opacity="0.6" d="M19.03 27.3499H15.74C14.69 27.9299 13.97 29.0399 13.97 30.3199C13.97 32.1999 15.5 33.7399 17.39 33.7399C19.28 33.7399 20.81 32.2099 20.81 30.3199C20.81 29.0399 20.09 27.9299 19.04 27.3499H19.03ZM17.38 31.7399C16.6 31.7399 15.96 31.1099 15.96 30.3199C15.96 29.5299 16.59 28.8999 17.38 28.8999C18.17 28.8999 18.8 29.5299 18.8 30.3199C18.8 31.1099 18.17 31.7399 17.38 31.7399ZM28.86 27.3499H25.57C24.52 27.9299 23.8 29.0399 23.8 30.3199C23.8 32.1999 25.33 33.7399 27.22 33.7399C29.11 33.7399 30.64 32.2099 30.64 30.3199C30.64 29.0399 29.92 27.9299 28.87 27.3499H28.86ZM27.21 31.7399C26.43 31.7399 25.79 31.1099 25.79 30.3199C25.79 29.5299 26.42 28.8999 27.21 28.8999C28 28.8999 28.63 29.5299 28.63 30.3199C28.63 31.1099 28 31.7399 27.21 31.7399ZM22.91 21.4399H30.73L30.18 23.4399H22.91C22.36 23.4399 21.91 22.9899 21.91 22.4399C21.91 21.8899 22.36 21.4399 22.91 21.4399ZM31.84 17.4399L31.29 19.4399H26.93C26.38 19.4399 25.93 18.9899 25.93 18.4399C25.93 17.8899 26.38 17.4399 26.93 17.4399H31.84Z" fill="#193A56"/>
<path d="M34.71 13.11C34.52 12.86 34.23 12.72 33.91 12.72H11.74L10.33 7.73C10.21 7.3 9.82 7 9.37 7H5C4.45 7 4 7.45 4 8C4 8.55 4.45 9 5 9H8.61L10.02 13.98L13.52 26.61C13.64 27.04 14.03 27.34 14.48 27.34H30.42C30.87 27.34 31.26 27.04 31.38 26.61L34.88 13.98C34.96 13.68 34.9 13.36 34.71 13.11ZM29.65 25.35H15.25L12.3 14.72H32.6L31.85 17.44L31.3 19.44L30.75 21.44L30.2 23.44L29.67 25.35H29.65Z" fill="#193A56"/>
</svg>
