<svg width="24" height="24" viewBox="0 0 24 24" fill="none" xmlns="http://www.w3.org/2000/svg">
<path opacity="0.6" d="M14.81 20.14C14.81 21.32 13.85 22.28 12.67 22.28H10.38C9.44002 22.28 8.65002 21.67 8.36002 20.83C6.30002 20.14 5.51002 18.36 5.33002 17.12C5.60002 17.21 5.88002 17.26 6.17002 17.26C6.59002 17.26 6.98002 17.16 7.33002 16.99C7.43002 17.52 7.74002 18.38 8.68002 18.82C9.07002 18.31 9.68002 17.98 10.37 17.98H12.66C13.84 17.98 14.8 18.94 14.8 20.12L14.81 20.14Z" fill="#193A56"/>
<path d="M20.04 9.45001C19.75 8.97001 19.27 8.59001 18.7 8.40001C18.53 4.85001 15.6 2.01001 12 2.01001C8.4 2.01001 5.59 4.74001 5.31 8.19001C4.91 8.32001 4.57 8.54001 4.29 8.82001V6.59001C4.29 6.04001 3.84 5.59001 3.29 5.59001C2.74 5.59001 2.29 6.04001 2.29 6.59001V9.99001C1.51 10.63 1 11.58 1 12.67C1 14.41 2.29 15.84 3.96 16.09C4.26 16.58 4.74 16.96 5.33 17.15C5.6 17.24 5.88 17.29 6.17 17.29C6.59 17.29 6.98 17.19 7.33 17.02C8.14 16.63 8.71 15.87 8.71 14.97V10.36C8.71 9.46001 8.14 8.69001 7.32 8.31001C7.54 5.91001 9.54 4.02001 11.99 4.02001C14.44 4.02001 16.57 6.02001 16.68 8.52001C15.85 8.90001 15.27 9.68001 15.27 10.58V15.19C15.27 16.47 16.41 17.51 17.81 17.51C18.77 17.51 19.59 17.02 20.02 16.31C21.69 16.06 22.98 14.63 22.98 12.89C22.98 11.15 21.69 9.72001 20.02 9.47001L20.04 9.45001ZM3.63 13.86C3.25 13.59 3 13.15 3 12.65C3 12.15 3.25 11.71 3.63 11.44V13.85V13.86ZM6.71 14.96C6.71 15.09 6.49 15.28 6.17 15.28C5.85 15.28 5.63 15.09 5.63 14.96V10.35C5.63 10.22 5.85 10.03 6.17 10.03C6.49 10.03 6.71 10.22 6.71 10.35V14.96ZM18.37 15.17C18.37 15.3 18.15 15.49 17.83 15.49C17.51 15.49 17.29 15.3 17.29 15.17V10.56C17.29 10.43 17.51 10.24 17.83 10.24C18.15 10.24 18.37 10.43 18.37 10.56V15.17ZM20.37 14.07V11.66C20.75 11.93 21 12.37 21 12.87C21 13.37 20.75 13.81 20.37 14.08V14.07Z" fill="#193A56"/>
</svg>
