<svg width="40" height="40" viewBox="0 0 40 40" fill="none" xmlns="http://www.w3.org/2000/svg">
<path d="M31.2 29.94C31.2 29.94 31.2 29.87 31.2 29.84C31.13 29.4 29.5 18.96 22.78 17.29C22.63 17.25 22.48 17.23 22.32 17.21C22.28 17.21 22.24 17.19 22.2 17.19H18.06C17.72 17.19 17.41 17.22 17.13 17.3C10.41 18.98 8.78 29.41 8.72 29.85C8.72 29.88 8.72 29.92 8.72 29.95C8.71 30.28 8.63 33.23 10.44 34.44C10.93 34.77 11.48 34.93 12.1 34.93C12.72 34.93 13.44 34.75 14.21 34.4C16.15 33.5 17.81 33.18 18.99 33.07C20.16 33 22.81 33.04 25.75 34.4C26.52 34.75 27.22 34.93 27.86 34.93C28.5 34.93 29.03 34.77 29.52 34.44C31.33 33.22 31.26 30.28 31.24 29.95L31.2 29.94ZM28.36 32.77C27.89 33.08 27.12 32.84 26.55 32.58C24.55 31.65 22.67 31.26 21.19 31.12C20.93 31.08 20.1 30.97 18.84 31.07C18.32 31.1 18.01 31.15 17.97 31.16C17.96 31.16 17.95 31.17 17.93 31.18C16.66 31.37 15.1 31.77 13.33 32.59C12.77 32.85 11.99 33.1 11.52 32.78C10.84 32.33 10.66 30.81 10.68 30.09C10.81 29.33 12.38 20.54 17.59 19.23C17.71 19.2 17.86 19.18 18.04 19.18H21.84C22.01 19.18 22.16 19.2 22.28 19.23C27.49 20.53 29.07 29.32 29.2 30.09C29.22 30.81 29.04 32.33 28.36 32.78V32.77Z" fill="#193A56"/>
<path d="M24.12 14.77C24.02 14.77 23.91 14.77 23.81 14.75C22.74 14.64 21.76 13.98 21.13 12.94C20.55 11.97 20.3 10.76 20.42 9.51C20.54 8.27 21.03 7.12 21.79 6.29C22.61 5.39 23.7 4.93 24.77 5.04C26.9 5.25 28.42 7.6 28.16 10.28C28.04 11.52 27.55 12.67 26.79 13.5C26.05 14.31 25.09 14.76 24.12 14.76V14.77ZM24.46 7.03C23.91 7.03 23.48 7.41 23.27 7.64C22.81 8.15 22.49 8.9 22.41 9.71C22.33 10.52 22.49 11.32 22.84 11.91C23.02 12.2 23.4 12.7 24 12.76C24.6 12.82 25.08 12.41 25.31 12.15C25.77 11.64 26.09 10.89 26.17 10.08C26.32 8.53 25.59 7.13 24.57 7.03C24.53 7.03 24.49 7.03 24.45 7.03H24.46ZM30.16 18.74C29.78 18.74 29.4 18.66 29.05 18.5C28.27 18.13 27.71 17.38 27.51 16.44C27.34 15.59 27.46 14.64 27.87 13.78C28.28 12.92 28.92 12.21 29.68 11.8C30.53 11.34 31.47 11.29 32.25 11.66C33.03 12.03 33.59 12.78 33.79 13.72C33.96 14.57 33.84 15.52 33.43 16.38C33.02 17.24 32.38 17.95 31.62 18.36C31.15 18.61 30.64 18.74 30.16 18.74ZM31.15 13.41C30.95 13.41 30.75 13.49 30.64 13.56C30.26 13.77 29.91 14.15 29.69 14.62C29.47 15.09 29.39 15.61 29.48 16.03C29.52 16.22 29.63 16.55 29.91 16.68C30.19 16.81 30.51 16.68 30.68 16.59C31.06 16.38 31.41 16 31.63 15.53C31.85 15.06 31.93 14.54 31.84 14.12C31.8 13.93 31.69 13.6 31.41 13.47C31.33 13.43 31.24 13.41 31.15 13.41ZM15.76 14.72C14.79 14.72 13.83 14.27 13.09 13.46C12.33 12.63 11.84 11.48 11.72 10.24C11.6 9 11.85 7.78 12.43 6.81C13.05 5.78 14.02 5.12 15.1 5.01C16.17 4.91 17.26 5.36 18.08 6.26C18.84 7.09 19.33 8.24 19.45 9.48C19.72 12.16 18.2 14.51 16.06 14.72C15.96 14.73 15.85 14.74 15.75 14.74L15.76 14.72ZM15.42 6.98C15.42 6.98 15.34 6.98 15.3 6.98C14.7 7.04 14.31 7.54 14.14 7.83C13.78 8.42 13.63 9.22 13.71 10.03C13.79 10.84 14.1 11.59 14.57 12.1C14.8 12.35 15.26 12.77 15.88 12.71C16.9 12.61 17.63 11.21 17.47 9.66C17.39 8.85 17.08 8.1 16.61 7.59C16.4 7.35 15.97 6.98 15.42 6.98ZM9.72 18.71C9.23 18.71 8.73 18.58 8.26 18.33C7.5 17.92 6.85 17.22 6.45 16.35C5.54 14.43 6.06 12.36 7.62 11.63C9.18 10.9 11.1 11.83 12 13.75C12.9 15.67 12.38 17.74 10.82 18.47C10.47 18.63 10.1 18.71 9.71 18.71H9.72ZM8.73 13.38C8.63 13.38 8.54 13.4 8.47 13.43C8.01 13.64 7.82 14.57 8.25 15.49C8.47 15.96 8.82 16.35 9.2 16.55C9.37 16.64 9.69 16.77 9.97 16.64C10.43 16.43 10.62 15.5 10.19 14.58C9.82 13.79 9.19 13.37 8.73 13.37V13.38Z" fill="#C4151C"/>
</svg>
