<svg width="40" height="40" viewBox="0 0 40 40" fill="none" xmlns="http://www.w3.org/2000/svg">
<path d="M24.73 22.07V33.29H22.73V23.07H17.27V33.29H15.27V22.07C15.27 21.52 15.72 21.07 16.27 21.07H23.73C24.28 21.07 24.73 21.52 24.73 22.07Z" fill="#C4151C"/>
<path d="M37.71 21.29L20.71 4.29C20.32 3.9 19.69 3.9 19.3 4.29L2.29 21.29C1.9 21.68 1.9 22.31 2.29 22.7C2.68 23.09 3.31 23.09 3.7 22.7L6.7 19.7V34.29C6.7 34.84 7.15 35.29 7.7 35.29H32.29C32.84 35.29 33.29 34.84 33.29 34.29V19.71L36.29 22.71C36.49 22.91 36.74 23 37 23C37.26 23 37.51 22.9 37.71 22.71C38.1 22.32 38.1 21.69 37.71 21.3V21.29ZM31.29 33.29H8.71V17.71L20 6.41L31.29 17.7V33.29Z" fill="#193A56"/>
</svg>
