<svg width="40" height="40" viewBox="0 0 40 40" fill="none" xmlns="http://www.w3.org/2000/svg">
<path fill-rule="evenodd" clip-rule="evenodd" d="M10.8112 6.20499C10.2885 6.20499 9.86475 6.62872 9.86475 7.15143C9.86475 7.67413 10.2885 8.09787 10.8112 8.09787H12.1564V12.7795C12.1564 14.7889 13.0595 16.2218 14.2946 17.3682C15.2288 18.2353 16.3759 18.9567 17.4695 19.6446C17.659 19.7638 17.8469 19.8819 18.0318 19.9997C17.8458 20.1178 17.6568 20.2363 17.4662 20.3559C16.3712 21.0428 15.2232 21.7628 14.2884 22.6289C13.0517 23.7747 12.148 25.2078 12.148 27.2205V31.9021H10.8112C10.2885 31.9021 9.86475 32.3258 9.86475 32.8485C9.86475 33.3713 10.2885 33.795 10.8112 33.795H28.7149C29.2376 33.795 29.6613 33.3713 29.6613 32.8485C29.6613 32.3258 29.2376 31.9021 28.7149 31.9021H27.3781V27.2205C27.3781 25.2111 26.475 23.7782 25.2399 22.6318C24.3057 21.7647 23.1586 21.0432 22.065 20.3554C21.8753 20.2361 21.6873 20.1178 21.5022 20C21.6889 19.8811 21.8786 19.7619 22.0699 19.6416C23.1628 18.9545 24.3084 18.2343 25.241 17.369C26.4759 16.2232 27.3781 14.7908 27.3781 12.7795V8.09787H28.7149C29.2376 8.09787 29.6613 7.67413 29.6613 7.15143C29.6613 6.62872 29.2376 6.20499 28.7149 6.20499H10.8112ZM14.0409 12.7795V8.09787H25.4768V10.7189C24.9764 10.9258 24.5192 11.2092 24.0906 11.4748L24.071 11.487C23.4686 11.8603 22.8937 12.2145 22.2148 12.4095C21.5466 12.6015 20.7624 12.6421 19.7527 12.3507C17.4305 11.6861 15.3241 12.7152 14.1108 13.5333C14.0653 13.2853 14.0409 13.0334 14.0409 12.7795ZM22.7187 14.2374C23.6694 13.9679 24.4349 13.4917 25.0812 13.0887C25.2139 13.0063 25.3395 12.9284 25.4608 12.8558C25.3252 14.3389 24.6347 15.3783 23.6544 16.2557C23.1001 16.7519 22.4536 17.1954 21.7573 17.6365C21.4803 17.8119 21.1912 17.9895 20.8974 18.17C20.5227 18.4002 20.1405 18.635 19.7667 18.8756C19.3759 18.6274 18.9583 18.3845 18.5384 18.1403L18.5205 18.1299C18.0293 17.8443 17.5341 17.5559 17.0582 17.2468C16.1918 16.6841 15.4145 16.0679 14.8748 15.3154C15.2655 15.0215 15.8355 14.6524 16.5089 14.3852C17.3255 14.0611 18.273 13.8949 19.2339 14.1687C20.6255 14.5682 21.7595 14.5094 22.7187 14.2374ZM14.0493 27.2289C14.0493 25.6637 14.8719 24.5244 16.0383 23.5607C16.6227 23.0778 17.2855 22.6461 17.9618 22.232C18.1871 22.094 18.4155 21.9571 18.6428 21.8208C19.0276 21.5902 19.4092 21.3614 19.7673 21.1327C20.1253 21.3614 20.5069 21.5902 20.8917 21.8208C21.119 21.9571 21.3474 22.094 21.5727 22.232C22.249 22.6461 22.9118 23.0778 23.4962 23.5607C24.6626 24.5244 25.4852 25.6637 25.4852 27.2289V31.9105H14.0493V27.2289Z" fill="#193A56"/>
<path d="M18.8865 26.0027C18.9818 25.6061 19.1363 25.3219 19.3422 25.1328L19.344 25.1311C19.5786 24.9095 19.8889 24.7924 20.2927 24.7924C20.5142 24.7924 20.7641 24.8405 21.0444 24.9404C21.3829 25.0611 21.7909 24.9325 21.9506 24.5793C22.0924 24.2657 21.9791 23.8622 21.6241 23.7273C21.214 23.5714 20.7706 23.4945 20.2927 23.4945C19.4989 23.4945 18.8416 23.7285 18.322 24.2151C17.8073 24.6971 17.566 25.3609 17.4108 26.0027H17.2165C16.9149 26.0027 16.6704 26.2472 16.6704 26.5488C16.6704 26.8504 16.9149 27.0948 17.2165 27.0948H17.3108V27.375H17.2127C16.9132 27.375 16.6704 27.6178 16.6704 27.9173C16.6704 28.2167 16.9132 28.4595 17.2127 28.4595H17.4129C17.5738 29.1951 17.8852 29.7801 18.3645 30.1978C18.87 30.645 19.5263 30.861 20.3156 30.861C20.76 30.861 21.1657 30.8016 21.5343 30.6757C21.7847 30.5902 21.9252 30.3501 21.9252 30.1078C21.9252 29.6503 21.4707 29.3715 21.0662 29.465C20.8278 29.52 20.5955 29.5478 20.369 29.5478C19.9361 29.5478 19.6066 29.4366 19.3638 29.2296C19.1608 29.0566 19.0041 28.8046 18.9032 28.4595H20.1403C20.4397 28.4595 20.6825 28.2167 20.6825 27.9173C20.6825 27.6178 20.4397 27.375 20.1403 27.375H18.7765V27.0948H20.4338C20.7354 27.0948 20.9798 26.8504 20.9798 26.5488C20.9798 26.2472 20.7354 26.0027 20.4338 26.0027H18.8865Z" fill="#C4151C"/>
</svg>
