<svg width="40" height="40" viewBox="0 0 40 40" fill="none" xmlns="http://www.w3.org/2000/svg">
<path fill-rule="evenodd" clip-rule="evenodd" d="M36.68 17.0452L30.1438 16.0273L23.4878 10.459C23.1385 10.1597 22.6895 10 22.2305 10H11.054C10.4253 10 9.83655 10.2994 9.46733 10.8083L5.91481 15.718L3.19054 16.6959C2.38224 16.9953 1.85336 17.8036 1.90325 18.6717L2.27247 24.2799C2.34233 25.3078 3.20052 26.1161 4.22836 26.1161H8.73047C8.64329 25.7921 8.59679 25.4515 8.59679 25.1C8.59679 24.7654 8.63894 24.4406 8.71821 24.1307L4.25829 24.1602L3.86911 18.5919L6.59338 17.614C6.59338 17.614 6.64327 17.584 6.66323 17.5741L29.6947 17.9732H29.7147C29.7147 17.9732 29.7845 17.9932 29.8145 18.0032L36.3308 19.0011L36.0718 24.0715C35.7666 24.1068 34.4882 24.1342 34.2305 24.1394C34.3083 24.4467 34.3497 24.7685 34.3497 25.1001C34.3497 25.4588 34.3013 25.8061 34.2106 26.136C34.3651 26.1361 34.5198 26.136 34.6743 26.136C36.7599 26.136 37.9873 25.9165 38.0571 24.7789L38.3465 19.1008C38.4064 18.093 37.6879 17.2148 36.69 17.0551L36.68 17.0452ZM16.9316 11.9958H22.2205L26.9106 15.9175L16.9316 15.7479V11.9958ZM11.054 11.9958H14.9358V15.708L8.45945 15.5982L11.054 12.0058V11.9958Z" fill="white"/>
<path d="M26.6719 24.1303C26.5925 24.4403 26.5504 24.7652 26.5504 25.1C26.5504 25.4515 26.5968 25.7921 26.684 26.1161H16.2583C16.3455 25.7921 16.392 25.4515 16.392 25.1C16.392 24.7652 16.3498 24.4403 16.2704 24.1303H26.6719Z" fill="white"/>
<path opacity="0.6" fill-rule="evenodd" clip-rule="evenodd" d="M16.4 25.1C16.4 27.2539 14.6539 29 12.5 29C10.3461 29 8.6 27.2539 8.6 25.1C8.6 22.9461 10.3461 21.2 12.5 21.2C14.6539 21.2 16.4 22.9461 16.4 25.1ZM14.4499 25.1C14.4499 26.177 13.5769 27.05 12.4999 27.05C11.423 27.05 10.5499 26.177 10.5499 25.1C10.5499 24.0231 11.423 23.15 12.4999 23.15C13.5769 23.15 14.4499 24.0231 14.4499 25.1ZM34.35 25.1C34.35 27.2539 32.6039 29 30.45 29C28.2961 29 26.55 27.2539 26.55 25.1C26.55 22.9461 28.2961 21.2 30.45 21.2C32.6039 21.2 34.35 22.9461 34.35 25.1ZM32.4 25.1C32.4 26.177 31.5269 27.05 30.45 27.05C29.373 27.05 28.5 26.177 28.5 25.1C28.5 24.0231 29.373 23.15 30.45 23.15C31.5269 23.15 32.4 24.0231 32.4 25.1Z" fill="white"/>
</svg>
