<svg width="24" height="24" viewBox="0 0 24 24" fill="none" xmlns="http://www.w3.org/2000/svg">
<path fill-rule="evenodd" clip-rule="evenodd" d="M5.69397 2C5.3107 2 5 2.3107 5 2.69396C5 3.07723 5.3107 3.38793 5.69397 3.38793H6.68034V6.82069C6.68034 8.29404 7.34249 9.34468 8.24812 10.1853C8.93311 10.8211 9.77419 11.35 10.5761 11.8544C10.715 11.9418 10.8528 12.0284 10.9884 12.1148C10.852 12.2014 10.7134 12.2883 10.5737 12.3759C9.77075 12.8796 8.92903 13.4076 8.24359 14.0426C7.33679 14.8828 6.67416 15.9336 6.67416 17.4093V20.8421H5.69397C5.3107 20.8421 5 21.1528 5 21.536C5 21.9193 5.3107 22.23 5.69397 22.23H18.8216C19.2049 22.23 19.5156 21.9193 19.5156 21.536C19.5156 21.1528 19.2049 20.8421 18.8216 20.8421H17.8414V17.4093C17.8414 15.936 17.1793 14.8853 16.2737 14.0447C15.5887 13.4089 14.7476 12.88 13.9457 12.3756C13.8066 12.2881 13.6687 12.2014 13.533 12.115C13.6699 12.0279 13.809 11.9404 13.9493 11.8522C14.7506 11.3484 15.5906 10.8203 16.2745 10.1858C17.1799 9.34571 17.8414 8.29541 17.8414 6.82069V3.38793H18.8216C19.2049 3.38793 19.5156 3.07723 19.5156 2.69396C19.5156 2.3107 19.2049 2 18.8216 2H5.69397ZM8.06209 6.82069V3.38793H16.4473V5.30975C16.0804 5.46146 15.7452 5.66924 15.4309 5.86404L15.4165 5.87296C14.9749 6.14668 14.5533 6.40636 14.0555 6.54939C13.5656 6.69015 12.9906 6.71991 12.2502 6.50629C10.5475 6.01895 9.00297 6.77355 8.11334 7.3734C8.08002 7.19155 8.06209 7.00687 8.06209 6.82069ZM14.425 7.8897C15.122 7.69205 15.6833 7.34286 16.1573 7.04743C16.2546 6.98695 16.3467 6.92988 16.4356 6.87664C16.3361 7.96411 15.8298 8.72618 15.1111 9.36957C14.7047 9.7334 14.2306 10.0586 13.7201 10.382C13.517 10.5106 13.3049 10.6409 13.0895 10.7732C12.8148 10.9419 12.5346 11.1141 12.2605 11.2906C11.974 11.1085 11.6677 10.9305 11.3598 10.7514L11.3467 10.7438C10.9866 10.5344 10.6234 10.3229 10.2745 10.0963C9.63921 9.68364 9.06927 9.23187 8.67358 8.68012C8.96 8.46459 9.37799 8.19395 9.87177 7.99801C10.4705 7.76042 11.1652 7.63851 11.8698 7.8393C12.8902 8.1322 13.7217 8.08912 14.425 7.8897ZM8.06827 17.4155C8.06827 16.2679 8.67146 15.4324 9.52669 14.7258C9.95519 14.3718 10.4411 14.0552 10.937 13.7516C11.1022 13.6504 11.2697 13.55 11.4364 13.4501C11.7185 13.281 11.9984 13.1132 12.2609 12.9456C12.5234 13.1132 12.8032 13.281 13.0853 13.4501C13.252 13.55 13.4195 13.6504 13.5847 13.7516C14.0806 14.0552 14.5666 14.3718 14.9951 14.7258C15.8503 15.4324 16.4535 16.2679 16.4535 17.4155V20.8482H8.06827V17.4155Z" fill="#51829A" stroke="#51829A" stroke-width="1.052"/>
<path opacity="0.6" fill-rule="evenodd" clip-rule="evenodd" d="M11.8893 16.3164C11.9447 16.1868 12.0115 16.0929 12.0845 16.0258L12.0869 16.0236L12.0879 16.0226C12.2165 15.9012 12.3919 15.829 12.6462 15.829C12.7801 15.829 12.9403 15.8581 13.1302 15.9258C13.4606 16.0436 13.8775 15.9234 14.0441 15.5551C14.1866 15.2399 14.0808 14.8082 13.6935 14.661C13.3679 14.5372 13.0184 14.4772 12.6462 14.4772C12.0216 14.4772 11.4881 14.6629 11.0645 15.0596C10.6875 15.4127 10.4971 15.8778 10.3778 16.3165C10.0521 16.3233 9.79016 16.5894 9.79016 16.9168C9.79016 17.127 9.8982 17.312 10.0618 17.4192C9.89826 17.5259 9.79016 17.7104 9.79016 17.9202C9.79016 18.2467 10.0521 18.5121 10.3774 18.5177C10.5111 19.0177 10.746 19.4336 11.1004 19.7426C11.515 20.1092 12.0467 20.2786 12.6629 20.2786C13.0065 20.2786 13.3264 20.2327 13.6212 20.1321C13.8975 20.0377 14.0432 19.7764 14.0432 19.5264C14.0432 19.0372 13.5646 18.7685 13.1683 18.8601C13.007 18.8974 12.8518 18.9157 12.7021 18.9157C12.4197 18.9157 12.2281 18.8439 12.0948 18.7302C12.0321 18.6768 11.9743 18.6074 11.924 18.5178H12.5344C12.8644 18.5178 13.132 18.2502 13.132 17.9202C13.132 17.7486 13.0597 17.594 12.944 17.485C13.1802 17.4042 13.35 17.1803 13.35 16.9168C13.35 16.5852 13.0812 16.3164 12.7496 16.3164H11.8893Z" fill="#51829A"/>
</svg>
