<svg width="24" height="24" viewBox="0 0 24 24" fill="none" xmlns="http://www.w3.org/2000/svg">
<path d="M12.51 21.96C11.92 21.96 11.35 21.67 11 21.19C8.76 18.11 5 12.49 5 9.48C5 5.35 8.37 2 12.51 2C16.65 2 20.02 5.35 20.02 9.48C20.02 12.49 16.26 18.11 14.02 21.19C13.67 21.67 13.11 21.96 12.51 21.96ZM12.51 4C9.47 4 7 6.46 7 9.48C7 11.19 9.11 15.16 12.51 19.86C15.91 15.16 18.02 11.19 18.02 9.48C18.02 6.46 15.55 4 12.51 4Z" fill="#193A56"/>
<path opacity="0.6" d="M12.51 12.45C10.72 12.45 9.26001 11 9.26001 9.21C9.26001 7.42 10.72 5.97 12.51 5.97C14.3 5.97 15.76 7.43 15.76 9.21C15.76 10.99 14.3 12.45 12.51 12.45ZM12.51 7.97C11.82 7.97 11.26 8.53 11.26 9.21C11.26 9.89 11.82 10.45 12.51 10.45C13.2 10.45 13.76 9.89 13.76 9.21C13.76 8.53 13.2 7.97 12.51 7.97Z" fill="#193A56"/>
</svg>
