<svg width="40" height="40" viewBox="0 0 40 40" fill="none" xmlns="http://www.w3.org/2000/svg">
<path d="M10.8 25.23C9.22 25.23 7.9 26.29 7.46 27.73C7.36 28.05 7.3 28.38 7.3 28.73C7.3 29.08 7.37 29.41 7.46 29.73C7.89 31.17 9.22 32.23 10.8 32.23C12.38 32.23 13.7 31.17 14.14 29.73C14.24 29.41 14.3 29.08 14.3 28.73C14.3 28.38 14.23 28.05 14.14 27.73C13.71 26.29 12.38 25.23 10.8 25.23ZM10.8 30.23C9.97 30.23 9.3 29.56 9.3 28.73C9.3 27.9 9.97 27.23 10.8 27.23C11.63 27.23 12.3 27.9 12.3 28.73C12.3 29.56 11.63 30.23 10.8 30.23ZM31.55 27.46C31.04 26.16 29.78 25.24 28.3 25.24C27.56 25.24 26.87 25.48 26.3 25.88C25.67 26.33 25.2 26.98 24.97 27.74C24.87 28.06 24.81 28.39 24.81 28.74C24.81 29.09 24.88 29.42 24.97 29.74C25.4 31.18 26.73 32.24 28.31 32.24C29.99 32.24 31.39 31.05 31.73 29.48C31.78 29.24 31.81 29 31.81 28.74C31.81 28.29 31.72 27.86 31.56 27.46H31.55ZM28.3 30.23C27.47 30.23 26.8 29.56 26.8 28.73C26.8 27.9 27.47 27.23 28.3 27.23C29.13 27.23 29.8 27.9 29.8 28.73C29.8 29.56 29.13 30.23 28.3 30.23Z" fill="#C4151C"/>
<path d="M24.97 27.73C24.87 28.05 24.81 28.38 24.81 28.73C24.81 29.08 24.88 29.41 24.97 29.73H14.14C14.24 29.41 14.3 29.08 14.3 28.73C14.3 28.38 14.23 28.05 14.14 27.73H24.97ZM35.96 20.33V28.46C35.96 28.64 35.91 28.81 35.82 28.97C35.57 29.39 35.51 29.49 33.61 29.49C33.12 29.49 32.5 29.49 31.72 29.47C31.77 29.23 31.8 28.99 31.8 28.73C31.8 28.28 31.71 27.85 31.55 27.45C32.23 27.45 33.21 27.45 33.95 27.45V21.41H28.27L28.29 25.22C27.55 25.22 26.86 25.46 26.29 25.86L26.23 14.78V10H6V27.73H7.47C7.37 28.05 7.31 28.38 7.31 28.73C7.31 29.08 7.38 29.41 7.47 29.73H5C4.45 29.73 4 29.28 4 28.73V9C4 8.45 4.45 8 5 8H27.24C27.79 8 28.24 8.45 28.24 9V13.56H31.8C32.17 13.56 32.5 13.76 32.68 14.08L35.83 19.85C35.91 20 35.95 20.16 35.95 20.33H35.96ZM33.32 19.42L31.21 15.56H28.25L28.27 19.42H33.33H33.32Z" fill="#193A56"/>
</svg>
