<svg width="40" height="40" viewBox="0 0 40 40" fill="none" xmlns="http://www.w3.org/2000/svg">
<path d="M37.71 21.29L20.71 4.29C20.32 3.9 19.69 3.9 19.3 4.29L2.29 21.29C1.9 21.68 1.9 22.31 2.29 22.7C2.68 23.09 3.31 23.09 3.7 22.7L6.7 19.7V34.29C6.7 34.84 7.15 35.29 7.7 35.29H32.29C32.84 35.29 33.29 34.84 33.29 34.29V19.71L36.29 22.71C36.49 22.91 36.74 23 37 23C37.26 23 37.51 22.9 37.71 22.71C38.1 22.32 38.1 21.69 37.71 21.3V21.29ZM31.29 33.29H8.71V17.71L20 6.41L31.29 17.7V33.29Z" fill="white"/>
<path opacity="0.6" d="M27.97 20.89C27.97 20.82 27.98 20.75 27.97 20.67C27.74 18.01 25.73 16.08 23.18 16.08C22.18 16.08 21.26 16.4 20.46 17.02C20.23 17.2 20.03 17.39 19.85 17.58C19.67 17.39 19.46 17.2 19.24 17.02C18.47 16.42 17.6 16.11 16.58 16.08C16.55 16.08 16.52 16.08 16.49 16.08C13.96 16.08 11.95 18.01 11.72 20.67C11.72 20.73 11.72 20.8 11.72 20.87C11.72 20.98 11.72 21.08 11.72 21.19C11.72 24.16 13.95 26.09 17.05 28.73C17.09 28.77 17.12 28.81 17.16 28.84C17.68 29.28 18.27 29.79 18.88 30.32C19.14 30.55 19.48 30.68 19.83 30.68C19.83 30.68 19.84 30.68 19.85 30.68C20.2 30.68 20.54 30.55 20.8 30.32C21.4 29.8 21.98 29.3 22.52 28.84C22.55 28.81 22.58 28.78 22.62 28.74C25.73 26.09 27.97 24.16 27.97 21.18C27.97 21.08 27.97 20.98 27.97 20.88V20.89ZM21.26 27.29C21.26 27.29 21.2 27.35 21.16 27.39C20.75 27.74 20.31 28.12 19.84 28.52C19.38 28.12 18.94 27.75 18.54 27.4C18.5 27.36 18.47 27.32 18.43 27.29C15.33 24.65 13.71 23.18 13.71 21.2C13.71 21.09 13.71 20.99 13.72 20.88C13.72 20.82 13.72 20.77 13.72 20.71C13.92 19.16 15.03 18.09 16.39 18.08C16.42 18.08 16.47 18.08 16.51 18.08C17.07 18.08 17.56 18.25 18.01 18.6C18.47 18.96 18.79 19.43 18.97 19.76C19.32 20.4 20.37 20.4 20.72 19.76C20.9 19.43 21.22 18.96 21.68 18.6C22.13 18.25 22.63 18.08 23.2 18.08C24.64 18.08 25.76 19.15 25.96 20.69C25.96 20.75 25.96 20.81 25.96 20.86C25.96 20.97 25.97 21.08 25.97 21.19C25.97 23.17 24.35 24.64 21.25 27.28L21.26 27.29Z" fill="white"/>
</svg>
