<svg width="40" height="40" viewBox="0 0 40 40" fill="none" xmlns="http://www.w3.org/2000/svg">
<path d="M28.26 26.8501C28.65 27.2401 28.65 27.8701 28.26 28.2601C28.06 28.4601 27.81 28.5501 27.55 28.5501C27.29 28.5501 27.04 28.4501 26.84 28.2601L19.77 21.1901L12.71 28.2601C12.51 28.4601 12.26 28.5501 12 28.5501C11.74 28.5501 11.49 28.4501 11.29 28.2601C10.9 27.8701 10.9 27.2401 11.29 26.8501L18.36 19.7801L11.29 12.7101C10.9 12.3201 10.9 11.6801 11.29 11.2901C11.68 10.9001 12.32 10.9001 12.71 11.2901L19.78 18.3601L26.85 11.2901C27.24 10.9001 27.87 10.9001 28.26 11.2901C28.65 11.6801 28.65 12.3101 28.26 12.7001L21.19 19.7701L28.26 26.8401V26.8501Z" fill="white"/>
</svg>
