<svg width="113" height="143" viewBox="0 0 113 143" fill="none" xmlns="http://www.w3.org/2000/svg">
<g clip-path="url(#clip0_12833_9346)">
<path d="M91.7683 6.8938C87.8846 10.7774 85.8298 15.7132 85.8298 21.1715V86.7273C85.8298 102.926 72.5125 116.038 56.519 116.038C40.5749 116.038 27.2716 103.498 27.2716 86.7273V21.1715C27.2716 15.7061 25.1886 10.7633 21.2555 6.87261C15.882 1.56968 8.57366 -0.30859 0.70752 1.82388V86.6496C0.70752 120.275 27.9707 142.955 56.3071 142.955C84.9684 142.955 112.401 120.769 112.401 86.6496V1.79564C104.401 -0.301529 97.0712 1.59086 91.7683 6.8938Z" fill="white"/>
<path d="M75.2065 87.1794C75.2065 97.404 66.9238 105.687 56.6992 105.687C46.4817 105.687 38.1919 97.404 38.1919 87.1794C38.1919 76.9549 46.4817 68.6721 56.6992 68.6721C66.9238 68.6721 75.2065 76.9619 75.2065 87.1794Z" fill="white"/>
</g>
<defs>
<clipPath id="clip0_12833_9346">
<rect width="111.708" height="142" fill="white" transform="translate(0.70752 0.958252)"/>
</clipPath>
</defs>
</svg>
