<svg width="40" height="40" viewBox="0 0 40 40" fill="none" xmlns="http://www.w3.org/2000/svg">
<path opacity="0.6" d="M22.06 24.66L24.74 28.35C24.15 28.69 23.53 28.97 22.87 29.18L20.81 26.35C20.24 26.43 19.73 26.43 19.17 26.35L17.11 29.18C16.45 28.97 15.83 28.69 15.24 28.35L17.92 24.66C18.16 24.33 18.57 24.18 18.97 24.28C19.74 24.47 20.24 24.47 21 24.28C21.39 24.18 21.81 24.33 22.05 24.66H22.06ZM16.36 22.36C16.01 21.79 15.8 21.14 15.75 20.44C15.72 20.03 15.45 19.69 15.06 19.56L10.7 18.14C10.56 18.78 10.49 19.44 10.49 20.12C10.49 20.14 10.49 20.16 10.49 20.17L13.83 21.26C13.93 21.8 14.09 22.31 14.32 22.8L12.26 25.63C12.66 26.19 13.12 26.7 13.62 27.16L16.3 23.47C16.54 23.14 16.55 22.7 16.34 22.36H16.36ZM16 17.71C16.29 17.71 16.57 17.59 16.76 17.36C17.22 16.82 17.76 16.42 18.37 16.17C18.75 16.02 18.99 15.65 18.99 15.24V10.69C18.3 10.76 17.63 10.92 16.99 11.13V14.63C16.53 14.88 16.1 15.2 15.71 15.57L12.37 14.49C11.96 15.04 11.61 15.63 11.33 16.25L15.69 17.67C15.79 17.7 15.9 17.72 16 17.72V17.71ZM21.61 16.17C22.22 16.42 22.76 16.82 23.22 17.36C23.41 17.59 23.69 17.71 23.98 17.71C24.08 17.71 24.19 17.69 24.29 17.66L28.65 16.24C28.37 15.61 28.02 15.02 27.61 14.48L24.27 15.56C23.88 15.19 23.45 14.87 22.99 14.62V11.12C22.35 10.91 21.68 10.75 20.99 10.68V15.25C20.99 15.66 21.24 16.02 21.61 16.18V16.17ZM29.48 20.18C29.48 20.18 29.48 20.14 29.48 20.13C29.48 19.45 29.41 18.79 29.27 18.15L24.92 19.56C24.53 19.69 24.26 20.03 24.23 20.44C24.18 21.14 23.97 21.79 23.62 22.36C23.41 22.71 23.43 23.14 23.66 23.47L26.34 27.16C26.85 26.7 27.31 26.19 27.7 25.63L25.64 22.8C25.87 22.31 26.03 21.8 26.13 21.26L29.47 20.17L29.48 20.18Z" fill="white"/>
<path d="M20 3C10.63 3 3 10.63 3 20C3 29.37 10.63 37 20 37C29.37 37 37 29.37 37 20C37 10.63 29.37 3 20 3ZM20 35C11.73 35 5 28.27 5 20C5 11.73 11.73 5 20 5C28.27 5 35 11.73 35 20C35 28.27 28.27 35 20 35ZM20 17.07C18.31 17.07 16.93 18.45 16.93 20.14C16.93 21.83 18.31 23.21 20 23.21C21.69 23.21 23.07 21.83 23.07 20.14C23.07 18.45 21.69 17.07 20 17.07ZM20 21.21C19.41 21.21 18.93 20.73 18.93 20.14C18.93 19.55 19.41 19.07 20 19.07C20.59 19.07 21.07 19.55 21.07 20.14C21.07 20.73 20.59 21.21 20 21.21ZM31.45 19.19C31.44 19.05 31.43 18.91 31.41 18.77C31.41 18.75 31.41 18.72 31.4 18.7C31.21 17.22 30.75 15.82 30.05 14.56C30 14.47 29.94 14.39 29.89 14.3C29.75 14.06 29.6 13.82 29.44 13.59C29.34 13.45 29.23 13.31 29.13 13.17C29 13 28.87 12.83 28.73 12.67C28.6 12.52 28.46 12.37 28.33 12.22C28.2 12.09 28.07 11.95 27.94 11.83C27.79 11.68 27.63 11.54 27.47 11.41C27.33 11.29 27.19 11.18 27.05 11.07C26.89 10.94 26.73 10.82 26.56 10.7C26.39 10.58 26.22 10.48 26.05 10.37C25.9 10.27 25.74 10.18 25.58 10.09C25.34 9.96 25.1 9.84 24.85 9.72C24.75 9.67 24.65 9.62 24.55 9.57C23.8 9.25 23.01 9 22.19 8.84C21.48 8.7 20.75 8.62 20 8.62C19.25 8.62 18.53 8.7 17.83 8.84C17.81 8.84 17.79 8.84 17.77 8.84C17.42 8.91 17.08 9 16.74 9.1C16.69 9.12 16.64 9.13 16.58 9.14C16.19 9.26 15.81 9.4 15.44 9.56C15.34 9.6 15.25 9.65 15.16 9.7C14.9 9.82 14.65 9.94 14.4 10.08C14.25 10.17 14.1 10.26 13.95 10.35C13.77 10.46 13.6 10.57 13.42 10.69C13.26 10.8 13.1 10.93 12.94 11.05C12.79 11.17 12.64 11.28 12.5 11.41C12.35 11.54 12.2 11.68 12.05 11.82C11.91 11.95 11.77 12.09 11.64 12.23C11.51 12.37 11.38 12.51 11.25 12.65C11.1 12.82 10.97 13 10.83 13.18C10.73 13.31 10.63 13.43 10.54 13.57C10.37 13.82 10.21 14.07 10.06 14.33C10.02 14.4 9.97 14.47 9.93 14.54C9.23 15.8 8.77 17.2 8.58 18.68C8.58 18.7 8.58 18.71 8.58 18.73C8.56 18.88 8.55 19.03 8.54 19.17C8.51 19.48 8.49 19.79 8.49 20.11C8.49 20.5 8.51 20.88 8.55 21.26C8.55 21.34 8.57 21.41 8.58 21.48C8.62 21.77 8.66 22.06 8.71 22.35C8.74 22.48 8.77 22.61 8.8 22.74C8.85 22.97 8.91 23.19 8.97 23.42C9.02 23.57 9.07 23.72 9.12 23.87C9.19 24.06 9.25 24.26 9.33 24.45C9.4 24.61 9.47 24.77 9.55 24.93C9.63 25.1 9.71 25.27 9.79 25.43C9.88 25.6 9.97 25.76 10.07 25.92C10.16 26.07 10.24 26.21 10.33 26.35C10.44 26.52 10.56 26.69 10.68 26.85C10.77 26.98 10.86 27.1 10.96 27.22C11.09 27.39 11.23 27.55 11.38 27.71C11.45 27.79 11.53 27.87 11.6 27.95C12.58 29 13.76 29.86 15.07 30.48C15.12 30.5 15.17 30.53 15.23 30.56C15.5 30.68 15.78 30.79 16.06 30.89C16.17 30.93 16.28 30.97 16.39 31.01C16.64 31.09 16.89 31.16 17.14 31.22C17.29 31.26 17.44 31.3 17.59 31.34C17.77 31.38 17.96 31.4 18.15 31.43C18.37 31.47 18.58 31.51 18.8 31.53C19.18 31.57 19.57 31.59 19.97 31.59C20.6 31.59 21.2 31.53 21.8 31.43C21.99 31.4 22.17 31.38 22.35 31.34C22.51 31.31 22.66 31.26 22.81 31.22C23.06 31.16 23.3 31.09 23.55 31.01C23.67 30.97 23.78 30.93 23.89 30.88C24.16 30.78 24.44 30.67 24.7 30.55C24.76 30.52 24.81 30.5 24.87 30.47C26.18 29.85 27.35 28.99 28.34 27.94C28.42 27.85 28.5 27.77 28.58 27.68C28.72 27.53 28.85 27.37 28.98 27.21C29.08 27.08 29.18 26.95 29.28 26.81C29.39 26.65 29.51 26.49 29.61 26.33C29.71 26.18 29.8 26.03 29.89 25.87C29.98 25.71 30.08 25.56 30.16 25.39C30.25 25.22 30.33 25.05 30.41 24.87C30.48 24.72 30.55 24.56 30.62 24.41C30.7 24.22 30.77 24.02 30.84 23.82C30.89 23.67 30.95 23.53 30.99 23.38C31.06 23.15 31.11 22.92 31.17 22.69C31.2 22.56 31.24 22.44 31.26 22.31C31.32 22.02 31.36 21.73 31.39 21.43C31.39 21.36 31.41 21.28 31.42 21.21C31.46 20.83 31.48 20.45 31.48 20.06C31.48 19.74 31.46 19.43 31.43 19.11L31.45 19.19ZM29.45 21.05C29.45 21.11 29.44 21.16 29.43 21.22C29.4 21.45 29.37 21.69 29.32 21.91C29.3 21.99 29.29 22.07 29.27 22.15C29.22 22.37 29.16 22.59 29.1 22.8C29.08 22.86 29.07 22.93 29.05 22.99C28.97 23.26 28.87 23.52 28.76 23.77C28.73 23.85 28.69 23.92 28.66 23.99C28.58 24.17 28.5 24.34 28.41 24.52C28.36 24.62 28.3 24.72 28.24 24.82C28.16 24.96 28.07 25.1 27.98 25.24C27.91 25.34 27.85 25.44 27.78 25.54C27.76 25.57 27.74 25.6 27.72 25.64C27.32 26.19 26.86 26.7 26.36 27.16C25.87 27.61 25.33 28 24.75 28.34C24.16 28.68 23.54 28.96 22.88 29.17C22.47 29.3 22.05 29.4 21.63 29.47C21.51 29.49 21.4 29.51 21.28 29.52C20.9 29.57 20.52 29.6 20.14 29.61C20.1 29.61 20.06 29.61 20.01 29.61C19.96 29.61 19.93 29.61 19.88 29.61C19.5 29.61 19.12 29.57 18.74 29.52C18.62 29.5 18.51 29.49 18.39 29.47C17.97 29.4 17.55 29.3 17.14 29.17C16.48 28.96 15.86 28.67 15.27 28.33C14.69 27.99 14.15 27.6 13.66 27.15C13.15 26.69 12.69 26.18 12.3 25.62C12.3 25.62 12.26 25.57 12.24 25.54C12.16 25.43 12.09 25.32 12.02 25.21C11.94 25.08 11.86 24.95 11.78 24.82C11.72 24.71 11.66 24.61 11.6 24.5C11.51 24.34 11.44 24.17 11.36 24C11.32 23.92 11.28 23.84 11.25 23.75C11.14 23.5 11.05 23.24 10.97 22.97C10.95 22.9 10.93 22.84 10.91 22.77C10.85 22.56 10.79 22.34 10.74 22.13C10.72 22.05 10.71 21.97 10.69 21.89C10.65 21.66 10.61 21.43 10.58 21.2C10.58 21.14 10.56 21.09 10.56 21.03C10.53 20.74 10.51 20.46 10.51 20.16C10.51 20.16 10.51 20.13 10.51 20.11C10.51 19.43 10.58 18.77 10.72 18.13C10.86 17.47 11.08 16.83 11.35 16.23C11.63 15.6 11.98 15.01 12.39 14.47H12.38C12.38 14.47 12.45 14.39 12.48 14.35C12.74 14.01 13.01 13.69 13.31 13.39C13.35 13.35 13.39 13.32 13.43 13.28C13.7 13.02 13.99 12.77 14.3 12.54C14.38 12.48 14.47 12.41 14.55 12.35C14.89 12.11 15.24 11.89 15.61 11.7C15.67 11.67 15.73 11.64 15.8 11.61C16.17 11.43 16.55 11.26 16.95 11.13C16.97 11.13 17 11.11 17.02 11.1C17.66 10.89 18.33 10.74 19.02 10.66C19.35 10.63 19.68 10.61 20.02 10.61C20.36 10.61 20.69 10.63 21.02 10.66C21.71 10.73 22.38 10.89 23.02 11.1C23.02 11.1 23.07 11.12 23.1 11.13C23.49 11.26 23.86 11.42 24.23 11.6C24.3 11.63 24.36 11.66 24.43 11.7C24.8 11.89 25.15 12.11 25.48 12.35C25.57 12.41 25.66 12.48 25.75 12.55C26.04 12.77 26.33 13.01 26.59 13.27C26.63 13.31 26.68 13.35 26.73 13.39C27.02 13.68 27.3 14 27.55 14.34C27.58 14.38 27.62 14.42 27.66 14.46H27.65C28.06 15.01 28.41 15.6 28.69 16.23C28.96 16.83 29.18 17.47 29.32 18.13C29.46 18.77 29.53 19.43 29.53 20.11C29.53 20.13 29.53 20.15 29.53 20.16C29.53 20.45 29.51 20.74 29.48 21.02L29.45 21.05Z" fill="white"/>
</svg>
